<svg width="35" height="35" fill="none" xmlns="http://www.w3.org/2000/svg"><path d="M11.753 31.533h10.626m-5.313-4.25v-7.438m-4.251-4.25l4.25 4.25 4.251-4.25" stroke="#11859A" stroke-width="2.125" stroke-linecap="round" stroke-linejoin="round"/><path d="M10.518 22.9a10.56 10.56 0 01-4.078-8.302c-.027-5.764 4.609-10.56 10.373-10.692a10.626 10.626 0 016.814 18.98 3.215 3.215 0 00-1.248 2.537v.797a1.063 1.063 0 01-1.063 1.063h-8.5a1.062 1.062 0 01-1.063-1.063v-.797a3.241 3.241 0 00-1.236-2.523v0z" stroke="#11859A" stroke-width="2.125" stroke-linecap="round" stroke-linejoin="round"/></svg>