<svg width="35" height="35" fill="none" xmlns="http://www.w3.org/2000/svg"><path d="M17.431 24.038a6.375 6.375 0 100-12.75 6.375 6.375 0 000 12.75z" stroke="#11859A" stroke-width="2.125" stroke-linecap="round" stroke-linejoin="round"/><path d="M24.83 9.308c.336.31.655.629.956.957l3.626.518a13.701 13.701 0 011.355 3.267l-2.205 2.936s.04.903 0 1.354l2.205 2.936a13.571 13.571 0 01-1.355 3.267l-3.626.518s-.624.651-.957.957l-.518 3.626a13.71 13.71 0 01-3.267 1.355l-2.935-2.205c-.451.04-.905.04-1.355 0l-2.936 2.204a13.577 13.577 0 01-3.267-1.354l-.518-3.626a24.65 24.65 0 01-.956-.957l-3.626-.518a13.708 13.708 0 01-1.355-3.267L6.3 18.34s-.04-.903 0-1.354L4.096 14.05a13.575 13.575 0 011.355-3.267l3.626-.518c.31-.328.628-.647.956-.957l.518-3.626a13.708 13.708 0 013.267-1.355l2.936 2.205c.45-.04.904-.04 1.355 0l2.935-2.205a13.6 13.6 0 013.267 1.355l.518 3.626z" stroke="#11859A" stroke-width="2.125" stroke-linecap="round" stroke-linejoin="round"/></svg>