<svg width="35" height="35" viewBox="0 0 35 35" fill="none" xmlns="http://www.w3.org/2000/svg">
<path d="M11.7527 31.5333H22.3786" stroke="#11859A" stroke-width="2.12518" stroke-linecap="round" stroke-linejoin="round"/>
<path d="M17.0657 27.2829V19.8448" stroke="#11859A" stroke-width="2.12518" stroke-linecap="round" stroke-linejoin="round"/>
<path d="M12.8154 15.5945L17.0658 19.8449L21.3162 15.5945" stroke="#11859A" stroke-width="2.12518" stroke-linecap="round" stroke-linejoin="round"/>
<path d="M10.5175 22.8996C9.25248 21.916 8.22791 20.6574 7.52142 19.2191C6.81494 17.7808 6.44506 16.2006 6.43981 14.5981C6.41325 8.83359 11.0488 4.03864 16.8134 3.90582C19.0444 3.85293 21.2354 4.5038 23.0757 5.7661C24.916 7.02841 26.3122 8.83809 27.0662 10.9385C27.8202 13.0388 27.8938 15.3233 27.2765 17.4679C26.6593 19.6124 25.3825 21.5082 23.6272 22.8864C23.2395 23.1861 22.9254 23.5705 22.709 24.0102C22.4926 24.4499 22.3796 24.9332 22.3787 25.4233V26.2202C22.3787 26.5021 22.2667 26.7723 22.0675 26.9716C21.8682 27.1709 21.5979 27.2828 21.3161 27.2828H12.8154C12.5335 27.2828 12.2633 27.1709 12.064 26.9716C11.8647 26.7723 11.7528 26.5021 11.7528 26.2202V25.4233C11.7494 24.9369 11.6367 24.4575 11.4228 24.0206C11.209 23.5838 10.8996 23.2006 10.5175 22.8996V22.8996Z" stroke="#11859A" stroke-width="2.12518" stroke-linecap="round" stroke-linejoin="round"/>
</svg>
