<svg width="35" height="35" viewBox="0 0 35 35" fill="none" xmlns="http://www.w3.org/2000/svg">
<path d="M20.9685 15.1908H25.2185" stroke="#11859A" stroke-width="2.12341" stroke-linecap="round" stroke-linejoin="round"/>
<path d="M10.3435 15.1908H14.5935" stroke="#11859A" stroke-width="2.12341" stroke-linecap="round" stroke-linejoin="round"/>
<path d="M12.4685 13.0659V17.3159" stroke="#11859A" stroke-width="2.12341" stroke-linecap="round" stroke-linejoin="round"/>
<path d="M23.6249 8.24469L11.9374 8.28453C10.3141 8.28762 8.74352 8.86134 7.50044 9.90533C6.25737 10.9493 5.42091 12.3971 5.13738 13.9955V13.9955L2.95926 25.165C2.8194 25.945 2.93237 26.7493 3.28168 27.4606C3.63099 28.1719 4.19838 28.753 4.90113 29.1192C5.60388 29.4854 6.40523 29.6175 7.18834 29.4963C7.97145 29.3751 8.69538 29.007 9.25457 28.4455V28.4455L14.9921 22.097L23.6249 22.0572C25.4565 22.0572 27.2132 21.3296 28.5083 20.0344C29.8035 18.7392 30.5311 16.9826 30.5311 15.1509C30.5311 13.3193 29.8035 11.5627 28.5083 10.2675C27.2132 8.97231 25.4565 8.24469 23.6249 8.24469V8.24469Z" stroke="#11859A" stroke-width="2.12341" stroke-linecap="round" stroke-linejoin="round"/>
<path d="M30.4248 13.9556L32.6029 25.1649C32.7427 25.9449 32.6298 26.7492 32.2805 27.4605C31.9311 28.1718 31.3638 28.7529 30.661 29.1191C29.9583 29.4853 29.1569 29.6174 28.3738 29.4963C27.5907 29.3751 26.8668 29.0069 26.3076 28.4454V28.4454L20.5701 22.0704" stroke="#11859A" stroke-width="2.12341" stroke-linecap="round" stroke-linejoin="round"/>
</svg>
