<svg width="35" height="35" viewBox="0 0 35 35" fill="none" xmlns="http://www.w3.org/2000/svg">
<path d="M17.431 24.0385C20.9521 24.0385 23.8065 21.1841 23.8065 17.663C23.8065 14.1418 20.9521 11.2874 17.431 11.2874C13.9099 11.2874 11.0554 14.1418 11.0554 17.663C11.0554 21.1841 13.9099 24.0385 17.431 24.0385Z" stroke="#11859A" stroke-width="2.12518" stroke-linecap="round" stroke-linejoin="round"/>
<path d="M24.8295 9.30835C25.166 9.61827 25.4848 9.93705 25.7859 10.2647L29.4119 10.7827C30.0028 11.8088 30.4582 12.9071 30.7667 14.0502L28.5619 16.9856C28.5619 16.9856 28.6017 17.8888 28.5619 18.3404L30.7667 21.2758C30.4596 22.4194 30.0041 23.5179 29.4119 24.5433L25.7859 25.0613C25.7859 25.0613 25.1616 25.7121 24.8295 26.0176L24.3115 29.6437C23.2854 30.2345 22.1871 30.6899 21.044 30.9985L18.1086 28.7936C17.6579 28.8335 17.2045 28.8335 16.7538 28.7936L13.8184 30.9985C12.6748 30.6913 11.5764 30.2359 10.5509 29.6437L10.0329 26.0176C9.7053 25.7077 9.38652 25.3889 9.0766 25.0613L5.45051 24.5433C4.85968 23.5172 4.40429 22.4189 4.0957 21.2758L6.30058 18.3404C6.30058 18.3404 6.26073 17.4372 6.30058 16.9856L4.0957 14.0502C4.40286 12.9066 4.85833 11.8081 5.45051 10.7827L9.0766 10.2647C9.38652 9.93705 9.7053 9.61827 10.0329 9.30835L10.5509 5.68226C11.577 5.09143 12.6753 4.63604 13.8184 4.32745L16.7538 6.53233C17.2045 6.49248 17.6579 6.49248 18.1086 6.53233L21.044 4.32745C22.1876 4.63461 23.2861 5.09008 24.3115 5.68226L24.8295 9.30835Z" stroke="#11859A" stroke-width="2.12518" stroke-linecap="round" stroke-linejoin="round"/>
</svg>
