<svg width="35" height="35" viewBox="0 0 35 35" fill="none" xmlns="http://www.w3.org/2000/svg">
<path d="M24.3612 27.2869C26.416 27.2869 28.0818 25.6211 28.0818 23.5663C28.0818 21.5115 26.416 19.8458 24.3612 19.8458C22.3064 19.8458 20.6406 21.5115 20.6406 23.5663C20.6406 25.6211 22.3064 27.2869 24.3612 27.2869Z" stroke="#11859A" stroke-width="2.12604" stroke-linecap="round" stroke-linejoin="round"/>
<path d="M7.35265 31.539C9.40746 31.539 11.0732 29.8732 11.0732 27.8184C11.0732 25.7636 9.40746 24.0978 7.35265 24.0978C5.29783 24.0978 3.63208 25.7636 3.63208 27.8184C3.63208 29.8732 5.29783 31.539 7.35265 31.539Z" stroke="#11859A" stroke-width="2.12604" stroke-linecap="round" stroke-linejoin="round"/>
<path d="M28.0815 11.3415L11.0732 15.5936" stroke="#11859A" stroke-width="2.12604" stroke-linecap="round" stroke-linejoin="round"/>
<path d="M11.0732 27.8183V9.21551L28.0815 4.96344V23.5663" stroke="#11859A" stroke-width="2.12604" stroke-linecap="round" stroke-linejoin="round"/>
</svg>
