<svg width="25" height="25" viewBox="0 0 25 25" fill="none" xmlns="http://www.w3.org/2000/svg">
    <path d="M14.1379 11.7231V6.72314C14.1379 6.45793 14.0326 6.20357 13.845 6.01604C13.6575 5.8285 13.4032 5.72314 13.1379 5.72314C12.8727 5.72314 12.6184 5.8285 12.4308 6.01604C12.2433 6.20357 12.1379 6.45793 12.1379 6.72314V11.7231H7.13794C6.87272 11.7231 6.61837 11.8285 6.43083 12.016C6.2433 12.2036 6.13794 12.4579 6.13794 12.7231C6.13794 12.9884 6.2433 13.2427 6.43083 13.4303C6.61837 13.6178 6.87272 13.7231 7.13794 13.7231H12.1379V18.7231C12.1379 18.9884 12.2433 19.2427 12.4308 19.4303C12.6184 19.6178 12.8727 19.7231 13.1379 19.7231C13.4032 19.7231 13.6575 19.6178 13.845 19.4303C14.0326 19.2427 14.1379 18.9884 14.1379 18.7231V13.7231H19.1379C19.4032 13.7231 19.6575 13.6178 19.845 13.4303C20.0326 13.2427 20.1379 12.9884 20.1379 12.7231C20.1379 12.4579 20.0326 12.2036 19.845 12.016C19.6575 11.8285 19.4032 11.7231 19.1379 11.7231H14.1379Z" fill="#21272A"/>
</svg>
