<svg width="35" height="35" viewBox="0 0 35 35" fill="none" xmlns="http://www.w3.org/2000/svg">
<path d="M17.9753 24.8312C20.9152 24.8312 23.2985 22.4479 23.2985 19.508C23.2985 16.5681 20.9152 14.1848 17.9753 14.1848C15.0354 14.1848 12.6521 16.5681 12.6521 19.508C12.6521 22.4479 15.0354 24.8312 17.9753 24.8312Z" stroke="#11859A" stroke-width="2.12927" stroke-linecap="round" stroke-linejoin="round"/>
<path d="M27.0251 16.3142C28.2651 16.3121 29.4884 16.5998 30.5975 17.1543C31.7065 17.7088 32.6706 18.5149 33.413 19.5081" stroke="#11859A" stroke-width="2.12927" stroke-linecap="round" stroke-linejoin="round"/>
<path d="M2.53784 19.5081C3.28016 18.5149 4.24429 17.7088 5.35335 17.1543C6.46241 16.5998 7.6857 16.3121 8.92566 16.3142" stroke="#11859A" stroke-width="2.12927" stroke-linecap="round" stroke-linejoin="round"/>
<path d="M10.3098 29.6221C11.0109 28.1862 12.1012 26.9762 13.4564 26.1298C14.8116 25.2834 16.3774 24.8346 17.9752 24.8346C19.573 24.8346 21.1387 25.2834 22.494 26.1298C23.8492 26.9762 24.9395 28.1862 25.6406 29.6221" stroke="#11859A" stroke-width="2.12927" stroke-linecap="round" stroke-linejoin="round"/>
<path d="M8.9262 16.3141C8.11793 16.3149 7.32612 16.0857 6.64328 15.6532C5.96045 15.2207 5.41479 14.6029 5.07007 13.8718C4.72534 13.1407 4.59579 12.3266 4.69655 11.5247C4.79731 10.7227 5.12421 9.96598 5.63907 9.34291C6.15393 8.71983 6.83547 8.25615 7.60407 8.00603C8.37266 7.75591 9.19657 7.72968 9.97951 7.93042C10.7625 8.13116 11.4721 8.55057 12.0255 9.13964C12.579 9.72872 12.9533 10.4631 13.1049 11.2571" stroke="#11859A" stroke-width="2.12927" stroke-linecap="round" stroke-linejoin="round"/>
<path d="M22.8462 11.2571C22.9977 10.4631 23.3721 9.72872 23.9255 9.13964C24.479 8.55057 25.1886 8.13116 25.9716 7.93042C26.7545 7.72968 27.5784 7.75591 28.347 8.00603C29.1156 8.25615 29.7972 8.71983 30.312 9.34291C30.8269 9.96598 31.1538 10.7227 31.2545 11.5247C31.3553 12.3266 31.2257 13.1407 30.881 13.8718C30.5363 14.6029 29.9906 15.2207 29.3078 15.6532C28.625 16.0857 27.8332 16.3149 27.0249 16.3141" stroke="#11859A" stroke-width="2.12927" stroke-linecap="round" stroke-linejoin="round"/>
</svg>
